<svg width="40" height="40" viewBox="0 0 40 40" fill="none" xmlns="http://www.w3.org/2000/svg">
<g filter="url(#filter0_ii_592:2748)">
<path d="M0 10C0 4.47715 4.47715 0 10 0H30C35.5228 0 40 4.47715 40 10V30C40 35.5228 35.5228 40 30 40H10C4.47715 40 0 35.5228 0 30V10Z" fill="#7000FF"/>
<path d="M8 17.449L12.773 7H14.493L19.309 17.449H16.772L13.633 10.268L10.494 17.449H8Z" fill="white"/>
<path d="M20.2617 17.449L25.0347 7H26.7547L31.5707 17.449H29.0337L25.8947 10.268L22.7557 17.449H20.2617Z" fill="white"/>
<path d="M30.2886 22.7549C30.2886 28.2777 25.5876 32.7549 19.7886 32.7549C13.9896 32.7549 9.28857 28.2777 9.28857 22.7549" stroke="white" stroke-width="2.5"/>
<circle cx="19.7886" cy="24.2549" r="1.5" fill="white"/>
</g>
<defs>
<filter id="filter0_ii_592:2748" x="-2" y="-2" width="44" height="44" filterUnits="userSpaceOnUse" color-interpolation-filters="sRGB">
<feFlood flood-opacity="0" result="BackgroundImageFix"/>
<feBlend mode="normal" in="SourceGraphic" in2="BackgroundImageFix" result="shape"/>
<feColorMatrix in="SourceAlpha" type="matrix" values="0 0 0 0 0 0 0 0 0 0 0 0 0 0 0 0 0 0 127 0" result="hardAlpha"/>
<feOffset dx="2" dy="-2"/>
<feGaussianBlur stdDeviation="2"/>
<feComposite in2="hardAlpha" operator="arithmetic" k2="-1" k3="1"/>
<feColorMatrix type="matrix" values="0 0 0 0 0 0 0 0 0 0 0 0 0 0 0 0 0 0 0.2 0"/>
<feBlend mode="normal" in2="shape" result="effect1_innerShadow_592:2748"/>
<feColorMatrix in="SourceAlpha" type="matrix" values="0 0 0 0 0 0 0 0 0 0 0 0 0 0 0 0 0 0 127 0" result="hardAlpha"/>
<feOffset dx="-2" dy="2"/>
<feGaussianBlur stdDeviation="2"/>
<feComposite in2="hardAlpha" operator="arithmetic" k2="-1" k3="1"/>
<feColorMatrix type="matrix" values="0 0 0 0 1 0 0 0 0 1 0 0 0 0 1 0 0 0 0.35 0"/>
<feBlend mode="normal" in2="effect1_innerShadow_592:2748" result="effect2_innerShadow_592:2748"/>
</filter>
</defs>
</svg>
