<svg width="20" height="20" viewBox="0 0 20 20" fill="none" xmlns="http://www.w3.org/2000/svg">
<circle cx="10" cy="10" r="9" stroke="white" stroke-width="2"/>
<path d="M8.98041 11.7493H10.7301V11.5923C10.7393 10.6921 11.0624 10.272 11.7918 9.83344C12.6551 9.32102 13.2183 8.64239 13.2183 7.55752C13.2183 5.94175 11.9165 4.99999 10.0838 4.99999C8.40797 4.99999 7.04149 5.87712 6.99994 7.72371H8.88347C8.91117 6.97123 9.46976 6.56959 10.0745 6.56959C10.6977 6.56959 11.2009 6.98508 11.2009 7.62677C11.2009 8.23153 10.7624 8.63316 10.1945 8.99325C9.41898 9.48259 8.98503 9.97656 8.98041 11.5923V11.7493ZM9.88986 14.7038C10.4808 14.7038 10.9932 14.2099 10.9978 13.5959C10.9932 12.9911 10.4808 12.4972 9.88986 12.4972C9.28048 12.4972 8.77729 12.9911 8.78191 13.5959C8.77729 14.2099 9.28048 14.7038 9.88986 14.7038Z" fill="white"/>
</svg>
