<svg width="26" height="26" viewBox="0 0 26 26" fill="none" xmlns="http://www.w3.org/2000/svg">
<circle cx="13" cy="13" r="13" fill="#7000FF"/>
<path d="M12.0455 15.5114H14.1989V15.3182C14.2102 14.2102 14.608 13.6932 15.5057 13.1534C16.5682 12.5227 17.2614 11.6875 17.2614 10.3523C17.2614 8.36364 15.6591 7.20455 13.4034 7.20455C11.3409 7.20455 9.65909 8.28409 9.60795 10.5568H11.9261C11.9602 9.63068 12.6477 9.13636 13.392 9.13636C14.1591 9.13636 14.7784 9.64773 14.7784 10.4375C14.7784 11.1818 14.2386 11.6761 13.5398 12.1193C12.5852 12.7216 12.0511 13.3295 12.0455 15.3182V15.5114ZM13.1648 19.1477C13.892 19.1477 14.5227 18.5398 14.5284 17.7841C14.5227 17.0398 13.892 16.4318 13.1648 16.4318C12.4148 16.4318 11.7955 17.0398 11.8011 17.7841C11.7955 18.5398 12.4148 19.1477 13.1648 19.1477Z" fill="white"/>
</svg>
