<svg width="80" height="80" viewBox="0 0 80 80" fill="none" xmlns="http://www.w3.org/2000/svg">
<circle cx="40" cy="40" r="40" fill="#FF8686"/>
<path d="M32.25 34.8409H35.6364C35.5341 31.1136 32.2386 28.4091 27.5114 28.4091C22.8409 28.4091 19.2614 31.0795 19.2614 35.0909C19.2614 38.3295 21.5795 40.2273 25.3182 41.2386L28.0682 41.9886C30.5568 42.6477 32.4773 43.4659 32.4773 45.5341C32.4773 47.8068 30.3068 49.3068 27.3182 49.3068C24.6136 49.3068 22.3636 48.1023 22.1591 45.5682H18.6364C18.8636 49.7841 22.125 52.3864 27.3409 52.3864C32.8068 52.3864 35.9545 49.5114 35.9545 45.5682C35.9545 41.375 32.2159 39.75 29.2614 39.0227L26.9886 38.4318C25.1705 37.9659 22.75 37.1136 22.7614 34.8864C22.7614 32.9091 24.5682 31.4432 27.4318 31.4432C30.1023 31.4432 32 32.6932 32.25 34.8409ZM58.9347 28.7273H55.4574V45.8182H55.2415L43.4006 28.7273H40.1506V52H43.6619V34.9318H43.8778L55.7074 52H58.9347V28.7273Z" fill="white"/>
</svg>
